<?xml version="1.0" encoding="UTF-8"?>
<svg xmlns="http://www.w3.org/2000/svg" width="512" height="512" viewBox="0 0 128 128"><g><path d="M108.625,35.008h-1.176l-1.343-6.979a7.736,7.736,0,0,0-7.2-6.274L95.75,21.59v-1.6a7.724,7.724,0,0,0-5.95-7.538l-2.838-.677L85.608,7.892a6.748,6.748,0,0,0-5.871-4.506L76.711,3.16A6.761,6.761,0,0,0,71.777,4.8L68.423,7.72,67.16,4.73A7.735,7.735,0,0,0,60.021,0H56.638a7.792,7.792,0,0,0-7.244,5L47.918,8.875H41.023a6.764,6.764,0,0,0-6.356,4.479L33.221,17.4a6.752,6.752,0,0,0-7.471,6.712v2l-1.553.367a6.735,6.735,0,0,0-4.9,8.53,6.123,6.123,0,0,0,.077,12.246H20.45l9.817,79.2A1.751,1.751,0,0,0,32,128H96a1.751,1.751,0,0,0,1.737-1.535l9.817-79.2h1.075a6.125,6.125,0,0,0,0-12.25ZM22.809,31.663A3.233,3.233,0,0,1,25,29.889l2.9-.686a1.75,1.75,0,0,0,1.348-1.7V24.116a3.25,3.25,0,0,1,3.831-3.2l.98.179a1.752,1.752,0,0,0,1.962-1.133l1.94-5.433a3.256,3.256,0,0,1,3.06-2.156h8.1a1.751,1.751,0,0,0,1.636-1.128l1.9-5.01A4.276,4.276,0,0,1,56.638,3.5h3.383a4.243,4.243,0,0,1,3.915,2.6l2.2,5.213a1.75,1.75,0,0,0,2.761.639l5.177-4.5a3.258,3.258,0,0,1,2.375-.79l3.026.226A3.249,3.249,0,0,1,82.3,9.046l1.67,4.781a1.748,1.748,0,0,0,1.245,1.125l3.769.9a4.234,4.234,0,0,1,3.263,4.133V23.25A1.751,1.751,0,0,0,93.908,25l4.811.253a4.242,4.242,0,0,1,3.95,3.44l1.216,6.317h-80.8l-.258-.527A3.233,3.233,0,0,1,22.809,31.663Zm1.168,15.6H34.451L40.818,124.5H33.55Zm13.986,0H51.8l.876,28.274a7.756,7.756,0,0,0-7.117,7.718V94.125a7.759,7.759,0,0,0,7.75,7.75H53.5l.7,22.622H44.331ZM53.312,98.375a4.255,4.255,0,0,1-4.25-4.25V83.25A4.255,4.255,0,0,1,53.312,79H74.687a4.254,4.254,0,0,1,4.25,4.25V94.125a4.254,4.254,0,0,1-4.25,4.25ZM71.82,75.5H56.18l-.875-28.242h17.39ZM57.7,124.5,57,101.875H71L70.3,124.5Zm16.1,0,.7-22.622h.183a7.759,7.759,0,0,0,7.75-7.75V83.25a7.756,7.756,0,0,0-7.117-7.718L76.2,47.258H90.037L83.669,124.5Zm20.647,0H87.181l6.368-77.239h10.474Zm14.175-80.739H19.375a2.625,2.625,0,0,1,0-5.25h89.25a2.625,2.625,0,0,1,0,5.25Z"/><path d="M72.687,83.5H55.312a1.75,1.75,0,0,0-1.75,1.75v6.875a1.75,1.75,0,0,0,1.75,1.75H72.687a1.749,1.749,0,0,0,1.75-1.75V85.25A1.749,1.749,0,0,0,72.687,83.5Zm-1.75,6.875H57.062V87H70.937Z"/><path d="M43.1,23.572l2.255.36a3.235,3.235,0,0,1,2.739,3.209v2.765a1.75,1.75,0,0,0,3.5,0V27.141a6.72,6.72,0,0,0-5.688-6.666l-2.256-.36a1.75,1.75,0,0,0-.55,3.457Z"/><path d="M61.187,27.063a1.747,1.747,0,0,0,1.316-.6l2.127-2.424a2.244,2.244,0,0,1,2.567-.589l2.778,1.174A1.75,1.75,0,0,0,71.337,21.4l-2.778-1.174A5.746,5.746,0,0,0,62,21.734l-2.127,2.424a1.751,1.751,0,0,0,1.315,2.9Z"/><path d="M85.073,29.173A1.75,1.75,0,1,0,87.552,26.7l-4.5-4.517a1.75,1.75,0,1,0-2.479,2.47Z"/></g></svg>
